<svg xmlns="http://www.w3.org/2000/svg" width="150" height="36" viewBox="0 0 150 36">
  <metadata><?xpacket begin="﻿" id="W5M0MpCehiHzreSzNTczkc9d"?>
<x:xmpmeta xmlns:x="adobe:ns:meta/" x:xmptk="Adobe XMP Core 5.6-c140 79.160451, 2017/05/06-01:08:21        ">
   <rdf:RDF xmlns:rdf="http://www.w3.org/1999/02/22-rdf-syntax-ns#">
      <rdf:Description rdf:about=""/>
   </rdf:RDF>
</x:xmpmeta>
                                                                                                    
                                                                                                    
                                                                                                    
                                                                                                    
                                                                                                    
                                                                                                    
                                                                                                    
                                                                                                    
                                                                                                    
                                                                                                    
                                                                                                    
                                                                                                    
                                                                                                    
                                                                                                    
                                                                                                    
                                                                                                    
                                                                                                    
                                                                                                    
                                                                                                    
                                                                                                    
                           
<?xpacket end="w"?></metadata>
<defs>
    <style>
      .cls-1 {
        fill: #ec008c;
        fill-rule: evenodd;
      }
    </style>
  </defs>
  <path id="logo" class="cls-1" d="M37.405,18.862H31.036V0H0V28.476a7.524,7.524,0,0,0,7.114,7.5v0.022H26.634a10.751,10.751,0,0,0,10.772-10.73v-6.4h0Zm-33.1,9.614V4.29H26.728V18.862H10.786v9.614A3.238,3.238,0,0,1,4.309,28.476ZM26.634,31.7H14.356a7.449,7.449,0,0,0,.738-3.226V23.154h18v2.11A6.45,6.45,0,0,1,26.634,31.7ZM20.265,10.727H10.792v1.7h9.472v-1.7ZM59.057,6.413h-8.42V29.645h4.546V20.438h3.874c4.367,0,7.417-2.884,7.417-7.013S63.424,6.413,59.057,6.413ZM61.9,13.457c0,1.88-1.292,3.047-3.373,3.047h-3.31V10.378h3.31C60.636,10.378,61.9,11.529,61.9,13.457Zm16.564,0.532a9.707,9.707,0,0,0-.971-0.061A4.819,4.819,0,0,0,73.207,16v-1.95l-4.454,0V29.645l4.58,0V22.5c0-3.5,2.107-4.234,3.874-4.234a6.254,6.254,0,0,1,1.233.123l0.13,0.026V14.1L78.559,14Zm4.667-7.576a2.67,2.67,0,1,0,0,5.34A2.67,2.67,0,1,0,83.128,6.413ZM80.839,29.645h4.577V14.057H80.839V29.645Zm15.441-16A5.356,5.356,0,0,0,91.936,15.7V14.049H87.672V29.637l4.577,0v-8.95c0-1.841.74-3.078,2.4-3.078,1.745,0,2.745,1.076,2.745,2.953v9.075l4.577,0V19.844C101.972,16.019,99.791,13.643,96.28,13.643Zm15.381-4.388h-4.248v2.264a2.115,2.115,0,0,1-2.275,2.328h-0.893v3.9h2.792V24.8c0,3,2.183,4.857,5.268,4.857a6.319,6.319,0,0,0,2.394-.383l0.067-.028V25.59l-0.138.04a6.922,6.922,0,0,1-1.257.121,1.431,1.431,0,0,1-1.71-1.672V17.751h3.105v-3.9h-3.105V9.255Zm5.378,20.377h4.578V14.045h-4.578V29.632ZM119.328,6.4a2.67,2.67,0,1,0,0,5.34A2.67,2.67,0,1,0,119.328,6.4Zm30.649,23.1a17.182,17.182,0,0,1-.186-2.418V19.527c0-1.789-.665-5.951-6.821-5.951-4.062,0-6.72,2.6-6.987,5.163l-0.011.1,3.917,0.826,0.011-.121a2.626,2.626,0,0,1,2.84-2.4c1.839,0,2.5.976,2.5,1.891a1,1,0,0,1-1.068.986l-3.795.563h0c-2.945.429-4.7,2.209-4.7,4.762,0,3.074,2.787,4.732,5.41,4.732a5.066,5.066,0,0,0,4.345-2.05,9.41,9.41,0,0,0,.154,1.529l0.019,0.084,4.4,0Zm-4.742-6.754v0.561c0,2.854-1.783,3.453-3.279,3.453a1.694,1.694,0,0,1-1.9-1.672,1.859,1.859,0,0,1,1.82-1.83ZM133.6,13.981a9.718,9.718,0,0,0-.971-0.061,4.82,4.82,0,0,0-4.282,2.075v-1.95l-4.454,0V29.637l4.58,0V22.495c0-3.5,2.107-4.234,3.874-4.234a6.249,6.249,0,0,1,1.233.123l0.131,0.026V14.09l-0.012-.1Z"/>
</svg>
